<?xml version="1.0" encoding="UTF-8" standalone="no"?>
<svg width="22px" height="22px" viewBox="0 0 22 22" version="1.1" xmlns="http://www.w3.org/2000/svg" xmlns:xlink="http://www.w3.org/1999/xlink">
    <!-- Generator: Sketch 40.1 (33804) - http://www.bohemiancoding.com/sketch -->
    <title>icon-cart</title>
    <desc>Created with Sketch.</desc>
    <defs></defs>
    <g id="Page-1" stroke="none" stroke-width="1" fill="none" fill-rule="evenodd">
        <g id="icon-cart" fill="#dea227">
            <path d="M4,7 L18,7 L18,19 L4,19 L4,7 Z M5,8 L17,8 L17,18 L5,18 L5,8 Z M7,4.5 C7,3.11928813 8.11236572,2 9.50930035,2 L12.4906996,2 C13.876548,2 15,3.10966206 15,4.5 L15,7 L7,7 L7,4.5 Z M8,5 C8,3.8954305 8.89826062,3 9.99791312,3 L12.0020869,3 C13.1055038,3 14,3.88772964 14,5 L14,7 L8,7 L8,5 Z" id="ICN---NAV---CART"></path>
        </g>
    </g>
</svg>
