<?xml version="1.0" encoding="UTF-8" standalone="no"?>
<svg width="18px" height="18px" viewBox="0 0 18 18" version="1.1" xmlns="http://www.w3.org/2000/svg" xmlns:xlink="http://www.w3.org/1999/xlink">
    <!-- Generator: Sketch 40.3 (33839) - http://www.bohemiancoding.com/sketch -->
    <title>Slice 1</title>
    <desc>Created with Sketch.</desc>
    <defs></defs>
    <g id="Page-1" stroke="none" stroke-width="1" fill="none" fill-rule="evenodd">
        <g id="input-radio-selected-" fill="#9AD6D1">
            <path d="M0,9 C0,4.02943725 4.02834436,0 9,0 C13.9705627,0 18,4.02834436 18,9 C18,13.9705627 13.9716556,18 9,18 C4.02943725,18 0,13.9716556 0,9 L0,9 L0,9 Z M2,9 C2,5.13400675 5.14187327,2 9,2 C12.8659932,2 16,5.14187327 16,9 C16,12.8659932 12.8581267,16 9,16 C5.13400675,16 2,12.8581267 2,9 L2,9 L2,9 Z" id="Combined-Shape"></path>
            <path d="M4,9 C4,6.23857625 6.24419519,4 9,4 C11.7614237,4 14,6.24419519 14,9 C14,11.7614237 11.7558048,14 9,14 C6.23857625,14 4,11.7558048 4,9 L4,9 L4,9 Z" id="Combined-Shape-path"></path>
        </g>
    </g>
</svg>
