<?xml version="1.0" encoding="UTF-8" standalone="no"?>
<svg width="18px" height="18px" viewBox="0 0 18 18" version="1.1" xmlns="http://www.w3.org/2000/svg" xmlns:xlink="http://www.w3.org/1999/xlink">
    <!-- Generator: Sketch 39.1 (31720) - http://www.bohemiancoding.com/sketch -->
    <title>Combined Shape</title>
    <desc>Created with Sketch.</desc>
    <defs></defs>
    <g id="Work" stroke="none" stroke-width="1" fill="none" fill-rule="evenodd">
        <g id="Ui-Kit" transform="translate(-538.000000, -245.000000)" fill="#919FA0">
            <path d="M538,245 L556,245 L556,263 L538,263 L538,245 L538,245 Z M550.831836,250.070108 C550.7417,249.976631 550.595963,249.976631 550.505827,250.070108 L545.573429,255.155268 L543.494173,253.012166 C543.404037,252.919376 543.2583,252.919376 543.168164,253.012166 L542.067602,254.147364 C541.977466,254.240291 541.977466,254.39013 542.067602,254.483607 L545.410358,257.929892 C545.500493,258.023369 545.646364,258.023369 545.736366,257.929892 L546.836929,256.795244 L551.932398,251.540862 C552.022534,251.448072 552.022534,251.298234 551.932398,251.205306 L550.831836,250.070108 L550.831836,250.070108 Z" id="Combined-Shape"></path>
        </g>
    </g>
</svg>
